<svg width="300" height="81" viewBox="0 0 300 81" fill="none" xmlns="http://www.w3.org/2000/svg">
<path d="M25.8208 0C34.2382 0 41.5939 1.66842 47.8879 5.00526C54.2578 8.26449 59.149 12.9981 62.5614 19.2062C66.0497 25.3367 67.7938 32.5148 67.7938 40.7404C67.7938 48.9661 66.0497 56.1054 62.5614 62.1583C59.149 68.2111 54.2578 72.8672 47.8879 76.1264C41.5939 79.308 34.2382 80.8989 25.8208 80.8989H0V0H25.8208ZM25.8208 70.0736C35.0723 70.0736 42.1626 67.5127 47.0917 62.3911C52.0208 57.2694 54.4853 50.0525 54.4853 40.7404C54.4853 31.3507 52.0208 24.0175 47.0917 18.7406C42.1626 13.4637 35.0723 10.8253 25.8208 10.8253H12.9673V70.0736H25.8208Z" fill="white"/>
<path d="M105.962 39.3436C110.209 40.1196 113.811 42.4089 116.768 46.2113C119.726 50.0137 121.204 54.3206 121.204 59.1318C121.204 63.2447 120.143 66.9695 118.019 70.3064C115.972 73.5656 112.977 76.1652 109.033 78.1052C105.09 79.9677 100.502 80.8989 95.2698 80.8989H63.6478V0H93.791C99.1751 0 103.801 0.931212 107.668 2.79364C111.536 4.65605 114.455 7.17808 116.427 10.3597C118.399 13.4637 119.384 16.9558 119.384 20.8358C119.384 25.4919 118.171 29.3719 115.744 32.476C113.318 35.58 110.057 37.8692 105.962 39.3436ZM76.6151 33.9892H92.6536C96.9002 33.9892 100.199 33.0192 102.55 31.0791C104.976 29.0615 106.19 26.1903 106.19 22.4654C106.19 18.8182 104.976 15.9858 102.55 13.9681C100.199 11.8729 96.9002 10.8253 92.6536 10.8253H76.6151V33.9892ZM94.1323 70.0736C98.5305 70.0736 101.981 68.9871 104.483 66.8143C106.986 64.6415 108.237 61.6151 108.237 57.735C108.237 53.7774 106.91 50.6345 104.256 48.3065C101.602 45.9785 98.0756 44.8145 93.6773 44.8145H76.6151V70.0736H94.1323Z" fill="white"/>
<path d="M144.119 0C152.536 0 159.892 1.66842 166.186 5.00526C172.556 8.26449 177.447 12.9981 180.859 19.2062C184.348 25.3367 186.092 32.5148 186.092 40.7404C186.092 48.9661 184.348 56.1054 180.859 62.1583C177.447 68.2111 172.556 72.8672 166.186 76.1264C159.892 79.308 152.536 80.8989 144.119 80.8989H118.298V0H144.119ZM144.119 70.0736C153.37 70.0736 160.461 67.5127 165.39 62.3911C170.319 57.2694 172.783 50.0525 172.783 40.7404C172.783 31.3507 170.319 24.0175 165.39 18.7406C160.461 13.4637 153.37 10.8253 144.119 10.8253H131.265V70.0736H144.119Z" fill="white"/>
<path d="M182.244 45.8854C182.244 40.6085 183.275 35.9835 185.338 32.0103C187.461 27.9751 190.373 24.8711 194.074 22.6982C197.774 20.5254 202.021 19.439 206.813 19.439C212.88 19.439 217.885 20.9289 221.828 23.9088C225.832 26.8266 228.532 31.0171 229.927 36.4802H218.734C217.824 33.9348 216.368 31.9483 214.366 30.5204C212.364 29.0926 209.847 28.3786 206.813 28.3786C202.567 28.3786 199.169 29.9306 196.621 33.0347C194.134 36.0766 192.891 40.3602 192.891 45.8854C192.891 51.4106 194.134 55.7252 196.621 58.8292C199.169 61.9332 202.567 63.4852 206.813 63.4852C212.819 63.4852 216.793 60.7847 218.734 55.3837H229.927C228.471 60.5985 225.741 64.7579 221.737 67.8619C217.733 70.9039 212.759 72.4249 206.813 72.4249C202.021 72.4249 197.774 71.3384 194.074 69.1656C190.373 66.9307 187.461 63.8267 185.338 59.8535C183.275 55.8183 182.244 51.1622 182.244 45.8854Z" fill="white"/>
<path d="M251.094 72.4249C246.362 72.4249 242.085 71.3384 238.263 69.1656C234.441 66.9307 231.438 63.8267 229.254 59.8535C227.07 55.8183 225.978 51.1622 225.978 45.8854C225.978 40.6706 227.101 36.0456 229.345 32.0103C231.59 27.9751 234.654 24.8711 238.536 22.6982C242.419 20.5254 246.756 19.439 251.549 19.439C256.342 19.439 260.679 20.5254 264.562 22.6982C268.444 24.8711 271.508 27.9751 273.753 32.0103C275.997 36.0456 277.12 40.6706 277.12 45.8854C277.12 51.1001 275.967 55.7252 273.662 59.7604C271.356 63.7956 268.202 66.9307 264.198 69.1656C260.255 71.3384 255.887 72.4249 251.094 72.4249ZM251.094 63.2059C253.763 63.2059 256.251 62.554 258.556 61.2503C260.922 59.9466 262.833 57.9911 264.289 55.3837C265.745 52.7763 266.473 49.6102 266.473 45.8854C266.473 42.1605 265.775 39.0255 264.38 36.4802C262.984 33.8728 261.134 31.9172 258.829 30.6135C256.524 29.3098 254.036 28.658 251.367 28.658C248.698 28.658 246.21 29.3098 243.905 30.6135C241.661 31.9172 239.871 33.8728 238.536 36.4802C237.202 39.0255 236.534 42.1605 236.534 45.8854C236.534 51.4106 237.899 55.6941 240.629 58.7361C243.42 61.7159 246.908 63.2059 251.094 63.2059Z" fill="white"/>
<path d="M293.448 53.6144C291.567 53.6144 289.99 52.9626 288.716 51.6589C287.442 50.3552 286.805 48.7411 286.805 46.8166C286.805 44.8921 287.442 43.278 288.716 41.9743C289.99 40.6706 291.567 40.0188 293.448 40.0188C295.268 40.0188 296.815 40.6706 298.089 41.9743C299.363 43.278 300 44.8921 300 46.8166C300 48.7411 299.363 50.3552 298.089 51.6589C296.815 52.9626 295.268 53.6144 293.448 53.6144Z" fill="white"/>
</svg>
